<svg width="27" height="22" viewBox="0 0 27 22" fill="none" xmlns="http://www.w3.org/2000/svg">
<path d="M24.5332 0H2.45706C1.8054 0 1.18044 0.257861 0.719655 0.716856C0.258867 1.17585 0 1.79838 0 2.4475V6.10958H2.45706V2.4475H24.5332V19.5525H15.9525V22H24.5429C25.1946 22 25.8196 21.7421 26.2803 21.2831C26.7411 20.8241 27 20.2016 27 19.5525V2.4475C27 1.79838 26.7411 1.17585 26.2803 0.716856C25.8196 0.257861 25.1946 0 24.5429 0H24.5332ZM0 18.3093V21.9714H3.67581C3.67588 21.4905 3.58086 21.0143 3.39617 20.57C3.21147 20.1257 2.94073 19.722 2.59939 19.3819C2.25805 19.0418 1.85281 18.7721 1.4068 18.588C0.960796 18.404 0.482762 18.3093 0 18.3093V18.3093ZM0 13.4234V15.8698C0.805572 15.8697 1.60327 16.0277 2.34752 16.3348C3.09177 16.6419 3.768 17.092 4.33757 17.6595C4.90714 18.2269 5.3589 18.9006 5.66704 19.642C5.97518 20.3835 6.13366 21.1781 6.13344 21.9805V22H8.59049C8.59309 19.7333 7.69169 17.5584 6.08458 15.9537C4.47747 14.3489 2.29625 13.4458 0.0207054 13.4429H0.00172539L0 13.4234ZM0 8.53818V10.9857C6.09663 10.9799 11.0429 15.8984 11.0475 21.9714V22H13.5046C13.4781 14.583 7.44594 8.57828 0 8.55708V8.53818Z" fill="#223B55"/>
</svg>
