<svg width="27" height="20" viewBox="0 0 27 20" fill="none" xmlns="http://www.w3.org/2000/svg">
<path d="M26.3672 16.6667C26.7152 16.6667 27 16.9479 27 17.2917V19.375C27 19.7187 26.7152 20 26.3672 20H0.632812C0.284766 20 0 19.7187 0 19.375V0.625C0 0.28125 0.284766 0 0.632812 0H2.74219C3.09023 0 3.375 0.28125 3.375 0.625V16.6667H26.3672ZM19.6541 4.97396L15.1875 7.91667L10.6893 1.99479C10.4203 1.64063 9.87188 1.66667 9.63984 2.04688L5.0625 9.58333V15H25.3125L20.5717 5.21875C20.4029 4.88021 19.9705 4.76562 19.6541 4.97396V4.97396Z" fill="#223B55"/>
</svg>
